<?xml version="1.0" encoding="UTF-8"?><svg id="Layer_2" xmlns="http://www.w3.org/2000/svg" viewBox="0 0 429.17 432"><defs><style>.cls-1{fill:#fff;}</style></defs><g id="Layer_1-2"><path class="cls-1" d="M420.29,237.96c-2.93-.73-5.86,0-8.06,2.2-2.2,1.46-3.66,4.4-4.39,7.32-15.38,94.45-95.92,162.55-191.84,162.55-106.9,0-194.04-87.14-194.04-194.04S109.1,21.96,216,21.96c70.29,0,136.92,39.54,170.6,101.05h-74.69c-5.85,0-10.98,5.13-10.98,10.98s5.13,10.98,10.98,10.98h79.81c13.18,0,24.16-10.98,24.16-24.16V41.73c0-5.85-5.13-10.98-10.98-10.98s-10.98,5.13-10.98,10.98v52.72C353.65,35.88,286.29,0,216,0,96.65,0,0,96.65,0,216s96.65,216,216,216c106.17,0,196.23-76.15,213.07-181.59,.73-5.85-2.93-10.98-8.79-12.45Z"/></g></svg>