<?xml version="1.0" encoding="UTF-8"?><svg id="Layer_2" xmlns="http://www.w3.org/2000/svg" viewBox="0 0 742.39 742.38"><defs><style>.cls-1{fill:#fff;}.cls-2{opacity:0;}</style></defs><g id="Layer_1-2"><g><path class="cls-1" d="M652.26,371.19c-.02,13.06-.88,26.11-2.58,39.06l.63-4.65c-3.43,25.49-10.21,50.32-19.95,74.11-1.22,2.99,1.8-4.2,.52-1.23-.21,.49-.42,.98-.63,1.47-.64,1.47-1.28,2.93-1.94,4.38-1.32,2.91-2.68,5.79-4.09,8.65-2.81,5.71-5.8,11.33-8.97,16.84-6.18,10.76-13.03,21.14-20.49,31.06-.48,.63-.96,1.26-1.43,1.89-1.92,2.54,2.77-3.54,.8-1.04-.82,1.03-1.63,2.07-2.45,3.1-2.14,2.67-4.33,5.31-6.56,7.9-3.95,4.59-8.03,9.07-12.25,13.42-8.71,8.98-17.97,17.42-27.71,25.26-1.13,.91-2.27,1.8-3.41,2.7-2.5,1.97,3.58-2.73,1.04-.8-.63,.48-1.26,.96-1.89,1.43-2.53,1.9-5.09,3.77-7.68,5.59-5.18,3.65-10.48,7.13-15.88,10.45-10.62,6.52-21.65,12.38-33,17.52-1.45,.66-2.91,1.31-4.38,1.94-.73,.32-1.47,.63-2.2,.95,5.63-2.45,1.76-.74,.49-.23-3.21,1.31-6.45,2.57-9.71,3.77-6.8,2.5-13.69,4.76-20.66,6.75-13.85,3.97-27.98,6.9-42.26,8.82l4.65-.63c-25.92,3.41-52.2,3.41-78.12,0l4.65,.63c-25.49-3.43-50.32-10.21-74.11-19.95-2.99-1.22,4.2,1.8,1.23,.52-.49-.21-.98-.42-1.47-.63-1.47-.64-2.93-1.28-4.38-1.94-2.91-1.32-5.79-2.68-8.65-4.09-5.71-2.81-11.33-5.8-16.84-8.97-10.76-6.18-21.14-13.03-31.06-20.49-.63-.48-1.26-.96-1.89-1.43-2.54-1.92,3.54,2.77,1.04,.8-1.03-.82-2.07-1.63-3.1-2.45-2.67-2.14-5.31-4.33-7.9-6.56-4.59-3.95-9.07-8.03-13.42-12.25-8.98-8.71-17.42-17.97-25.26-27.71-.91-1.13-1.8-2.27-2.7-3.41-1.97-2.5,2.73,3.58,.8,1.04-.48-.63-.96-1.26-1.43-1.89-1.9-2.53-3.77-5.09-5.59-7.68-3.65-5.18-7.13-10.48-10.45-15.88-6.52-10.62-12.38-21.65-17.52-33-.66-1.45-1.31-2.91-1.94-4.38-.32-.73-.63-1.47-.95-2.2,2.45,5.63,.74,1.76,.23,.49-1.31-3.21-2.57-6.45-3.77-9.71-2.5-6.8-4.76-13.69-6.75-20.66-3.97-13.85-6.9-27.98-8.82-42.26l.63,4.65c-3.41-25.92-3.41-52.2,0-78.12l-.63,4.65c3.43-25.49,10.21-50.32,19.95-74.11,1.22-2.99-1.8,4.2-.52,1.23,.21-.49,.42-.98,.63-1.47,.64-1.47,1.28-2.93,1.94-4.38,1.32-2.91,2.68-5.79,4.09-8.65,2.81-5.71,5.8-11.33,8.97-16.84,6.18-10.76,13.03-21.14,20.49-31.06,.48-.63,.96-1.26,1.43-1.89,1.92-2.54-2.77,3.54-.8,1.04,.82-1.03,1.63-2.07,2.45-3.1,2.14-2.67,4.33-5.31,6.56-7.9,3.95-4.59,8.03-9.07,12.25-13.42,8.71-8.98,17.97-17.42,27.71-25.26,1.13-.91,2.27-1.8,3.41-2.7,2.5-1.97-3.58,2.73-1.04,.8,.63-.48,1.26-.96,1.89-1.43,2.53-1.9,5.09-3.77,7.68-5.59,5.18-3.65,10.48-7.13,15.88-10.45,10.62-6.52,21.65-12.38,33-17.52,1.45-.66,2.91-1.31,4.38-1.94,.73-.32,1.47-.63,2.2-.95-5.63,2.45-1.76,.74-.49,.23,3.21-1.31,6.45-2.57,9.71-3.77,6.8-2.5,13.69-4.76,20.66-6.75,13.85-3.97,27.98-6.9,42.26-8.82l-4.65,.63c26.27-3.46,52.9-3.39,79.16,.12l-4.65-.63c18.98,2.61,37.68,6.97,55.83,13.12,4.49,1.52,8.95,3.16,13.37,4.89,.98,.39,1.96,.78,2.94,1.17,1.15,.47,5.5,2.74,.69,.26,2.02,1.04,4.21,1.83,6.28,2.77,8.85,4.01,17.48,8.47,25.9,13.31,7.94,4.57,19.51,2.12,23.94-6.28s2.2-19.07-6.28-23.94c-56.75-32.63-123.76-47.61-188.98-40.78-52.52,5.5-103.37,23.62-146.87,53.74-42.58,29.49-78.24,68.91-102.27,114.88s-37.46,100.78-35.95,154.25c1.5,53.11,16.61,105.58,43.68,151.3,26.25,44.33,63.37,82.09,107.12,109.26,45.07,27.99,97.09,44.02,150.03,46.71,53.57,2.73,107.29-9.01,155.27-32.8s86.51-58.01,116.9-99.99c31.01-42.84,49.98-93.15,56.64-145.47,1.58-12.41,2.35-24.91,2.37-37.42,.01-9.15-8.06-17.92-17.5-17.5s-17.49,7.69-17.5,17.5h0Z"/><g class="cls-2"><path class="cls-1" d="M371.19,741.13c-67.99-.12-135.09-19.13-192.99-54.8-54.67-33.68-100.41-81.68-131.35-137.94C13.97,488.58-1.76,420.24,1.74,352.08c3.45-67.29,25.9-133.07,63.92-188.67,36.15-52.86,85.98-96.18,143.46-124.43C270.62,8.75,339.98-3.76,408.17,3.1c33.17,3.33,65.87,11.19,96.94,23.24,15.96,6.19,31.49,13.5,46.44,21.85,2.22,1.24,4.43,2.51,6.63,3.78,1.06,.61,1.02,1.03,1.22-.02-.01,.06-.08,.12-.1,.18-.28,.85-1,1.73-1.45,2.5-15.13,26.2-30.26,52.41-45.39,78.61-7.07,12.24-14.13,24.48-21.2,36.72-1.1,1.91-2.21,5.12-3.84,6.65,.8-.75,.77,.13,.16-.57-.49-.57-1.68-.97-2.36-1.36-3.2-1.84-6.44-3.63-9.72-5.33-7.08-3.66-14.35-6.93-21.77-9.83-57.1-22.27-122.16-20.41-177.7,5.59-53.4,25-96.39,71.09-117.4,126.19-20.84,54.65-19.24,116.68,4.29,170.21s68.59,97.68,122.92,120.05c54.57,22.47,117.29,22.29,171.74-.45,54.03-22.57,98.65-66.47,122.08-120.14,11.61-26.6,17.96-55.39,18.64-84.41,.06-2.46,.06-4.93,.06-7.39,0-1.45,.46-1.75-.62-1.38,.05-.02,.12,.01,.17,0,.84-.19,1.95,0,2.81,0h14.23c33.72,0,67.44,0,101.16,0,5.97,0,11.94,0,17.91,0,2.21,0,5.54-.65,7.67,0-.67-.2-.45-.81-.58-.12-.17,.9,0,2.07,0,2.99,0,3.59-.04,7.17-.14,10.76-.23,8.39-.74,16.76-1.54,25.12-1.67,17.45-4.61,34.77-8.78,51.8-15.63,63.79-48.56,122.81-94.27,169.92-45.57,46.96-103.23,81.6-166.27,99.3-32.19,9.04-65.51,13.5-98.94,13.56-.8,0-.81,1.25,0,1.25,78.37-.14,155.52-25.44,218.69-71.87,60.61-44.54,107.11-107.07,131.97-178.08,14.14-40.37,20.53-82.56,20.53-125.25,0-.34-.29-.62-.62-.62h-144c-.34,0-.62,.29-.62,.62,0,36.91-7.65,72.95-24.58,105.91-17.81,34.67-44.69,64.63-77.07,86.28-65.05,43.49-150.35,49.74-220.93,15.79-70.67-33.99-120.83-104.31-128.29-182.54-3.66-38.4,2.66-77.55,18.47-112.75s41.77-67.37,73.41-90.72c30.94-22.83,67.53-37.6,105.72-42.26,41.72-5.09,84.63,1.73,122.72,19.47,7.21,3.36,14.16,7.17,21.04,11.14,.29,.17,.69,.07,.86-.22,8.12-14.06,16.24-28.12,24.35-42.18,12.93-22.39,25.86-44.79,38.79-67.18,2.95-5.12,5.91-10.23,8.86-15.35,.17-.29,.07-.69-.22-.86-36.95-21.33-76.71-36.87-118.66-44.98-44.37-8.57-90.27-9-134.77-1.12-44.44,7.87-87.37,24.1-126.03,47.37-36.95,22.24-69.96,50.99-97.24,84.4s-48.98,72.13-63.26,113.18C5.11,294.25-1.62,340.7,.33,386.89c1.93,45.9,12.58,91.22,31.15,133.24,17.41,39.38,41.68,75.58,71.41,106.73,29.9,31.33,65.12,57.47,103.89,76.78,40.53,20.18,84.63,32.9,129.72,37.13,11.53,1.08,23.11,1.6,34.69,1.62,.8,0,.81-1.25,0-1.25Z"/></g><path class="cls-1" d="M481.3,33.32c1.07,2.94,2.14,5.88,3.21,8.83,2.56,7.02,5.11,14.05,7.67,21.07,3.11,8.53,6.21,17.07,9.32,25.6,2.67,7.34,5.35,14.69,8.02,22.03,1.3,3.58,2.56,7.18,3.91,10.75,.02,.05,.04,.11,.06,.16l12.22-21.53c-2.94,1.07-5.88,2.14-8.83,3.21-7.02,2.56-14.05,5.11-21.07,7.67-8.53,3.11-17.07,6.21-25.6,9.32l-22.03,8.02c-3.58,1.3-7.17,2.59-10.75,3.91-.05,.02-.11,.04-.16,.06-2.28,.54-4.26,1.59-5.95,3.13-1.91,1.23-3.41,2.87-4.51,4.91-1.28,2.01-1.97,4.18-2.08,6.51-.52,2.33-.42,4.65,.31,6.98,1.37,4.23,3.99,8.32,8.04,10.46s9.1,3.36,13.48,1.76c2.94-1.07,5.88-2.14,8.83-3.21l21.07-7.67c8.53-3.11,17.07-6.21,25.6-9.32,7.34-2.67,14.69-5.35,22.03-8.02,3.58-1.3,7.17-2.59,10.75-3.91,.05-.02,.11-.04,.16-.06,2.28-.54,4.26-1.59,5.95-3.13,1.91-1.23,3.41-2.87,4.51-4.91,2.1-3.97,3.36-9.1,1.76-13.48-1.07-2.94-2.14-5.88-3.21-8.83-2.56-7.02-5.11-14.05-7.67-21.07-3.11-8.53-6.21-17.07-9.32-25.6-2.67-7.34-5.35-14.69-8.02-22.03-1.3-3.58-2.59-7.17-3.91-10.75-.02-.05-.04-.11-.06-.16-.54-2.28-1.59-4.26-3.13-5.95-1.23-1.91-2.87-3.41-4.91-4.51-2.01-1.28-4.18-1.97-6.51-2.08-2.33-.52-4.65-.42-6.98,.31-4.23,1.37-8.32,3.99-10.46,8.04s-3.36,9.1-1.76,13.48h0Z"/></g></g></svg>