<?xml version="1.0" encoding="UTF-8"?><svg id="Layer_2" xmlns="http://www.w3.org/2000/svg" viewBox="0 0 742.39 742.38"><defs><style>.cls-1{fill:#fff;}.cls-2{opacity:0;}</style></defs><g id="Layer_1-2"><g><path class="cls-1" d="M644.76,371.19c-.02,13.06-.88,26.11-2.58,39.06l.89-6.65c-3.49,25.99-10.42,51.41-20.57,75.59l2.52-5.97c-10.11,23.92-23.3,46.45-39.15,67.02l3.91-5.06c-15.82,20.42-34.18,38.78-54.6,54.6l5.06-3.91c-20.57,15.85-43.1,29.04-67.02,39.15l5.97-2.52c-24.18,10.15-49.6,17.07-75.59,20.57l6.65-.89c-25.92,3.41-52.2,3.41-78.12,0l6.65,.89c-25.99-3.49-51.41-10.42-75.59-20.57l5.97,2.52c-23.92-10.11-46.45-23.3-67.02-39.15l5.06,3.91c-20.42-15.82-38.78-34.18-54.6-54.6l3.91,5.06c-15.85-20.57-29.04-43.1-39.15-67.02l2.52,5.97c-10.15-24.18-17.07-49.6-20.57-75.59l.89,6.65c-3.41-25.92-3.41-52.2,0-78.12l-.89,6.65c3.49-25.99,10.42-51.41,20.57-75.59l-2.52,5.97c10.11-23.92,23.3-46.45,39.15-67.02l-3.91,5.06c15.82-20.42,34.18-38.78,54.6-54.6l-5.06,3.91c20.57-15.85,43.1-29.04,67.02-39.15l-5.97,2.52c24.18-10.15,49.6-17.07,75.59-20.57l-6.65,.89c26.27-3.46,52.9-3.39,79.16,.12l-6.65-.89c26.14,3.59,51.7,10.58,76.03,20.81l-5.97-2.52c11.38,4.83,22.44,10.33,33.16,16.49,5.65,3.25,12.96,4.26,19.26,2.52,5.8-1.6,12.08-6.08,14.94-11.49,6.29-11.91,3.14-27.24-8.97-34.2-57.8-33.24-126.31-48.76-192.76-41.81-27.37,2.86-54.25,8.55-80.02,18.28s-48.74,21.33-70.63,36.49c-43.63,30.21-80.32,70.44-104.96,117.57-25.36,48.52-38.53,103.25-36.98,158.04,1.54,54.42,16.96,108.23,44.71,155.09s64.98,84.1,109.81,111.95,99.57,44.97,153.82,47.73c54.91,2.79,109.91-9.45,159.06-33.82,47.73-23.66,88.45-59.66,119.59-102.68,15.64-21.61,27.87-45.12,37.82-69.83,10.29-25.57,16.38-52.14,19.85-79.43,1.58-12.41,2.35-24.91,2.37-37.42,0-6.4-2.8-13.15-7.32-17.68s-11.45-7.6-17.68-7.32c-13.56,.61-24.98,10.98-25,25h0Z"/><g class="cls-2"><path class="cls-1" d="M371.19,741.13c-67.99-.12-135.09-19.13-192.99-54.8-54.67-33.68-100.41-81.68-131.35-137.94C13.97,488.58-1.76,420.24,1.74,352.08c3.45-67.29,25.9-133.07,63.92-188.67,36.15-52.86,85.98-96.18,143.46-124.43C270.62,8.75,339.98-3.76,408.17,3.1c33.17,3.33,65.87,11.19,96.94,23.24,15.96,6.19,31.49,13.5,46.44,21.85,2.22,1.24,4.43,2.51,6.63,3.78,1.06,.61,1.02,1.03,1.22-.02-.01,.06-.08,.12-.1,.18-.28,.85-1,1.73-1.45,2.5-15.13,26.2-30.26,52.41-45.39,78.61-7.07,12.24-14.13,24.48-21.2,36.72-1.1,1.91-2.21,5.12-3.84,6.65,.8-.75,.77,.13,.16-.57-.49-.57-1.68-.97-2.36-1.36-3.2-1.84-6.44-3.63-9.72-5.33-7.08-3.66-14.35-6.93-21.77-9.83-57.1-22.27-122.16-20.41-177.7,5.59-53.4,25-96.39,71.09-117.4,126.19-20.84,54.65-19.24,116.68,4.29,170.21s68.59,97.68,122.92,120.05c54.57,22.47,117.29,22.29,171.74-.45,54.03-22.57,98.65-66.47,122.08-120.14,11.61-26.6,17.96-55.39,18.64-84.41,.06-2.46,.06-4.93,.06-7.39,0-1.45,.46-1.75-.62-1.38,.05-.02,.12,.01,.17,0,.84-.19,1.95,0,2.81,0h14.23c33.72,0,67.44,0,101.16,0,5.97,0,11.94,0,17.91,0,2.21,0,5.54-.65,7.67,0-.67-.2-.45-.81-.58-.12-.17,.9,0,2.07,0,2.99,0,3.59-.04,7.17-.14,10.76-.23,8.39-.74,16.76-1.54,25.12-1.67,17.45-4.61,34.77-8.78,51.8-15.63,63.79-48.56,122.81-94.27,169.92-45.57,46.96-103.23,81.6-166.27,99.3-32.19,9.04-65.51,13.5-98.94,13.56-.8,0-.81,1.25,0,1.25,78.37-.14,155.52-25.44,218.69-71.87,60.61-44.54,107.11-107.07,131.97-178.08,14.14-40.37,20.53-82.56,20.53-125.25,0-.34-.29-.62-.62-.62h-144c-.34,0-.62,.29-.62,.62,0,36.91-7.65,72.95-24.58,105.91-17.81,34.67-44.69,64.63-77.07,86.28-65.05,43.49-150.35,49.74-220.93,15.79-70.67-33.99-120.83-104.31-128.29-182.54-3.66-38.4,2.66-77.55,18.47-112.75s41.77-67.37,73.41-90.72c30.94-22.83,67.53-37.6,105.72-42.26,41.72-5.09,84.63,1.73,122.72,19.47,7.21,3.36,14.16,7.17,21.04,11.14,.29,.17,.69,.07,.86-.22,8.12-14.06,16.24-28.12,24.35-42.18,12.93-22.39,25.86-44.79,38.79-67.18,2.95-5.12,5.91-10.23,8.86-15.35,.17-.29,.07-.69-.22-.86-36.95-21.33-76.71-36.87-118.66-44.98-44.37-8.57-90.27-9-134.77-1.12-44.44,7.87-87.37,24.1-126.03,47.37-36.95,22.24-69.96,50.99-97.24,84.4s-48.98,72.13-63.26,113.18C5.11,294.25-1.62,340.7,.33,386.89c1.93,45.9,12.58,91.22,31.15,133.24,17.41,39.38,41.68,75.58,71.41,106.73,29.9,31.33,65.12,57.47,103.89,76.78,40.53,20.18,84.63,32.9,129.72,37.13,11.53,1.08,23.11,1.6,34.69,1.62,.8,0,.81-1.25,0-1.25Z"/></g><path class="cls-1" d="M474.07,35.31c1.07,2.94,2.14,5.88,3.21,8.83,2.56,7.02,5.11,14.05,7.67,21.07,3.11,8.53,6.21,17.07,9.32,25.6l8.02,22.03c1.3,3.58,2.58,7.18,3.91,10.75,.02,.05,.04,.11,.06,.16l17.46-30.75c-2.94,1.07-5.88,2.14-8.83,3.21-7.02,2.56-14.05,5.11-21.07,7.67l-25.6,9.32c-7.34,2.67-14.69,5.35-22.03,8.02-3.58,1.3-7.17,2.6-10.75,3.91-.05,.02-.11,.04-.16,.06-3.25,.77-6.09,2.27-8.5,4.47-2.72,1.76-4.87,4.1-6.44,7.01-1.83,2.87-2.82,5.97-2.97,9.29-.74,3.32-.6,6.65,.45,9.97l2.52,5.97c2.22,3.76,5.21,6.75,8.97,8.97l5.97,2.52c4.43,1.19,8.86,1.19,13.29,0,2.94-1.07,5.88-2.14,8.83-3.21,7.02-2.56,14.05-5.11,21.07-7.67,8.53-3.11,17.07-6.21,25.6-9.32l22.03-8.02c3.58-1.3,7.17-2.6,10.75-3.91,.05-.02,.11-.04,.16-.06,3.25-.77,6.09-2.27,8.5-4.47,2.72-1.76,4.87-4.1,6.44-7.01l2.52-5.97c1.19-4.43,1.19-8.86,0-13.29-1.07-2.94-2.14-5.88-3.21-8.83-2.56-7.02-5.11-14.05-7.67-21.07-3.11-8.53-6.21-17.07-9.32-25.6l-8.02-22.03c-1.3-3.58-2.6-7.17-3.91-10.75-.02-.05-.04-.11-.06-.16-.77-3.25-2.27-6.09-4.47-8.5-1.76-2.72-4.1-4.87-7.01-6.44-2.87-1.83-5.97-2.82-9.29-2.97-3.32-.74-6.65-.6-9.97,.45l-5.97,2.52c-3.76,2.22-6.75,5.21-8.97,8.97l-2.52,5.97c-1.19,4.43-1.19,8.86,0,13.29h0Z"/></g></g></svg>